<svg preserveAspectRatio="none" width="100%" height="100%" overflow="visible" style="display: block;" viewBox="0 0 15 14.625" fill="none" xmlns="http://www.w3.org/2000/svg">
<path id="Vector" d="M6 0H9C10.5913 0 12.1174 0.632141 13.2426 1.75736C14.3679 2.88258 15 4.4087 15 6C15 7.5913 14.3679 9.11742 13.2426 10.2426C12.1174 11.3679 10.5913 12 9 12V14.625C5.25 13.125 0 10.875 0 6C0 4.4087 0.632141 2.88258 1.75736 1.75736C2.88258 0.632141 4.4087 0 6 0V0ZM7.5 10.5H9C9.59095 10.5 10.1761 10.3836 10.7221 10.1575C11.268 9.93131 11.7641 9.59984 12.182 9.18198C12.5998 8.76412 12.9313 8.26804 13.1575 7.72207C13.3836 7.17611 13.5 6.59095 13.5 6C13.5 5.40905 13.3836 4.82389 13.1575 4.27792C12.9313 3.73196 12.5998 3.23588 12.182 2.81802C11.7641 2.40016 11.268 2.06869 10.7221 1.84254C10.1761 1.6164 9.59095 1.5 9 1.5H6C4.80653 1.5 3.66193 1.97411 2.81802 2.81802C1.97411 3.66193 1.5 4.80653 1.5 6C1.5 8.7075 3.3465 10.4745 7.5 12.36V10.5Z" fill="var(--fill-0, #A4A4A4)"/>
</svg>
