<svg preserveAspectRatio="none" width="100%" height="100%" overflow="visible" style="display: block;" viewBox="0 0 15.1875 14.6242" fill="none" xmlns="http://www.w3.org/2000/svg">
<path id="Vector" d="M11.8125 8.99958V5.62458C11.8125 5.47539 11.8718 5.33232 11.9773 5.22683C12.0827 5.12134 12.2258 5.06208 12.375 5.06208C12.5242 5.06208 12.6673 5.12134 12.7727 5.22683C12.8782 5.33232 12.9375 5.47539 12.9375 5.62458V8.99958C12.9375 9.14876 12.8782 9.29184 12.7727 9.39733C12.6673 9.50282 12.5242 9.56208 12.375 9.56208C12.2258 9.56208 12.0827 9.50282 11.9773 9.39733C11.8718 9.29184 11.8125 9.14876 11.8125 8.99958ZM14.625 3.93708C14.4758 3.93708 14.3327 3.99634 14.2273 4.10183C14.1218 4.20732 14.0625 4.35039 14.0625 4.49958V10.1246C14.0625 10.2738 14.1218 10.4168 14.2273 10.5223C14.3327 10.6278 14.4758 10.6871 14.625 10.6871C14.7742 10.6871 14.9173 10.6278 15.0227 10.5223C15.1282 10.4168 15.1875 10.2738 15.1875 10.1246V4.49958C15.1875 4.35039 15.1282 4.20732 15.0227 4.10183C14.9173 3.99634 14.7742 3.93708 14.625 3.93708ZM2.66625 0.746297C2.61685 0.690614 2.55689 0.645289 2.48985 0.61295C2.42281 0.58061 2.35001 0.561898 2.27568 0.5579C2.20135 0.553901 2.12697 0.564694 2.05684 0.589655C1.98672 0.614615 1.92224 0.653246 1.86716 0.703307C1.81207 0.753369 1.76747 0.813867 1.73593 0.881293C1.7044 0.94872 1.68656 1.02173 1.68345 1.09611C1.68035 1.17048 1.69203 1.24473 1.71783 1.31455C1.74363 1.38437 1.78303 1.44838 1.83375 1.50286L4.04648 3.93708H1.125C0.826631 3.93708 0.540483 4.05561 0.329505 4.26658C0.118526 4.47756 0 4.76371 0 5.06208V9.56208C0 9.86045 0.118526 10.1466 0.329505 10.3576C0.540483 10.5686 0.826631 10.6871 1.125 10.6871H4.30664L9.21727 14.5058C9.30036 14.5703 9.39992 14.6103 9.50461 14.6212C9.60931 14.632 9.71494 14.6132 9.80951 14.567C9.90407 14.5208 9.98377 14.449 10.0395 14.3597C10.0953 14.2705 10.1249 14.1673 10.125 14.0621V10.6231L13.0838 13.8779C13.1331 13.9335 13.1931 13.9789 13.2602 14.0112C13.3272 14.0435 13.4 14.0623 13.4743 14.0663C13.5486 14.0703 13.623 14.0595 13.6932 14.0345C13.7633 14.0095 13.8278 13.9709 13.8828 13.9208C13.9379 13.8708 13.9825 13.8103 14.0141 13.7429C14.0456 13.6754 14.0634 13.6024 14.0665 13.5281C14.0697 13.4537 14.058 13.3794 14.0322 13.3096C14.0064 13.2398 13.967 13.1758 13.9162 13.1213L2.66625 0.746297ZM9.14625 6.20184C9.22261 6.28586 9.32261 6.3448 9.4331 6.37092C9.54358 6.39703 9.65939 6.38911 9.76528 6.34818C9.87118 6.30725 9.96222 6.23523 10.0264 6.1416C10.0906 6.04797 10.125 5.93709 10.125 5.82356V0.562078C10.1249 0.456824 10.0953 0.353704 10.0395 0.264441C9.98377 0.175178 9.90407 0.103354 9.80951 0.0571351C9.71494 0.0109157 9.60931 -0.00784477 9.50461 0.00298665C9.39992 0.0138181 9.30036 0.0538069 9.21727 0.118407L6.41531 2.29809C6.35413 2.34572 6.30346 2.40548 6.26647 2.47362C6.22949 2.54176 6.20699 2.61681 6.20038 2.69406C6.19378 2.77131 6.20322 2.84909 6.22811 2.92251C6.25299 2.99594 6.29279 3.06343 6.345 3.12075L9.14625 6.20184Z" fill="var(--fill-0, white)"/>
</svg>
