<svg preserveAspectRatio="none" width="100%" height="100%" overflow="visible" style="display: block;" viewBox="0 0 15 13.875" fill="none" xmlns="http://www.w3.org/2000/svg">
<path id="Vector" d="M10.875 0C13.1535 0 15 1.875 15 4.5C15 9.75 9.375 12.75 7.5 13.875C5.625 12.75 0 9.75 0 4.5C0 1.875 1.875 0 4.125 0C5.52 0 6.75 0.75 7.5 1.5C8.25 0.75 9.48 0 10.875 0ZM8.2005 11.703C8.86125 11.286 9.4575 10.8712 10.0155 10.4272C12.2513 8.64975 13.5 6.70725 13.5 4.5C13.5 2.73 12.3473 1.5 10.875 1.5C10.068 1.5 9.195 1.9275 8.5605 2.5605L7.5 3.621L6.4395 2.5605C5.805 1.9275 4.932 1.5 4.125 1.5C2.67 1.5 1.5 2.742 1.5 4.5C1.5 6.708 2.7495 8.64975 4.98375 10.4272C5.5425 10.8712 6.13875 11.286 6.7995 11.7023C7.02375 11.844 7.24575 11.9797 7.5 12.1312C7.75425 11.9797 7.97625 11.844 8.2005 11.703V11.703Z" fill="var(--fill-0, #A4A4A4)"/>
</svg>
