<svg preserveAspectRatio="none" width="100%" height="100%" overflow="visible" style="display: block;" viewBox="0 0 15 15" fill="none" xmlns="http://www.w3.org/2000/svg">
<path id="Vector" d="M7.5 15C3.35775 15 0 11.6422 0 7.5C0 3.35775 3.35775 0 7.5 0C11.6422 0 15 3.35775 15 7.5C15 11.6422 11.6422 15 7.5 15ZM4.5 8.25C4.5 9.04565 4.81607 9.80871 5.37868 10.3713C5.94129 10.9339 6.70435 11.25 7.5 11.25C8.29565 11.25 9.05871 10.9339 9.62132 10.3713C10.1839 9.80871 10.5 9.04565 10.5 8.25H4.5ZM4.5 6.75C4.79837 6.75 5.08452 6.63147 5.2955 6.4205C5.50647 6.20952 5.625 5.92337 5.625 5.625C5.625 5.32663 5.50647 5.04048 5.2955 4.8295C5.08452 4.61853 4.79837 4.5 4.5 4.5C4.20163 4.5 3.91548 4.61853 3.7045 4.8295C3.49353 5.04048 3.375 5.32663 3.375 5.625C3.375 5.92337 3.49353 6.20952 3.7045 6.4205C3.91548 6.63147 4.20163 6.75 4.5 6.75V6.75ZM10.5 6.75C10.7984 6.75 11.0845 6.63147 11.2955 6.4205C11.5065 6.20952 11.625 5.92337 11.625 5.625C11.625 5.32663 11.5065 5.04048 11.2955 4.8295C11.0845 4.61853 10.7984 4.5 10.5 4.5C10.2016 4.5 9.91548 4.61853 9.7045 4.8295C9.49353 5.04048 9.375 5.32663 9.375 5.625C9.375 5.92337 9.49353 6.20952 9.7045 6.4205C9.91548 6.63147 10.2016 6.75 10.5 6.75Z" fill="var(--fill-0, #A4A4A4)"/>
</svg>
